<svg width="300" height="80" viewBox="0 0 300 80" fill="none" xmlns="http://www.w3.org/2000/svg">
<g clip-path="url(#clip0_873_294)">
<path d="M49.2688 0.0344238H9.56335C4.28166 0.0344238 0 4.31608 0 9.59777V49.3032C0 54.5849 4.28166 58.8665 9.56335 58.8665H49.2688C54.5505 58.8665 58.8321 54.5849 58.8321 49.3032V9.59777C58.8321 4.31608 54.5505 0.0344238 49.2688 0.0344238Z" fill="#5D9732"/>
<path d="M20.5912 13.6722H5.53269C5.20071 13.6722 4.88232 13.8041 4.64757 14.0389C4.41283 14.2736 4.28094 14.592 4.28094 14.924V29.2565C4.28094 29.5885 4.41283 29.9069 4.64757 30.1416C4.88232 30.3764 5.20071 30.5082 5.53269 30.5082H20.5912C21.1975 30.5091 21.798 30.3904 22.3584 30.1589C22.9187 29.9275 23.428 29.5878 23.8569 29.1594C24.2859 28.731 24.6263 28.2223 24.8585 27.6622C25.0907 27.1022 25.2102 26.5018 25.2102 25.8956V18.2849C25.2102 17.6787 25.0907 17.0783 24.8585 16.5183C24.6263 15.9582 24.2859 15.4495 23.8569 15.0211C23.428 14.5926 22.9187 14.253 22.3584 14.0216C21.798 13.7901 21.1975 13.6714 20.5912 13.6722ZM21.9369 25.6953C21.9369 25.9731 21.8821 26.2482 21.7758 26.5048C21.6695 26.7615 21.5137 26.9947 21.3173 27.1911C21.1208 27.3876 20.8876 27.5434 20.631 27.6497C20.3743 27.756 20.0992 27.8107 19.8214 27.8107H8.19266C8.02667 27.8107 7.86747 27.7448 7.7501 27.6274C7.63273 27.51 7.56678 27.3509 7.56678 27.1849V16.933C7.56678 16.7671 7.63273 16.6079 7.7501 16.4905C7.86747 16.3731 8.02667 16.3072 8.19266 16.3072H19.8214C20.3825 16.3072 20.9205 16.5301 21.3173 16.9268C21.714 17.3235 21.9369 17.8616 21.9369 18.4226V25.6953Z" fill="#FDFAF8"/>
<path d="M54.3258 14.7925V29.5569C54.3267 29.6919 54.3007 29.8258 54.2494 29.9507C54.1981 30.0756 54.1225 30.189 54.027 30.2845C53.9316 30.38 53.8181 30.4556 53.6932 30.5069C53.5683 30.5582 53.4344 30.5841 53.2994 30.5833H52.0477C51.9132 30.5833 51.78 30.5567 51.6558 30.5051C51.5316 30.4534 51.4189 30.3777 51.3241 30.2823C51.2292 30.1869 51.1542 30.0737 51.1033 29.9492C51.0524 29.8247 51.0267 29.6914 51.0275 29.5569V19.4866L42.3466 30.0388C41.9002 30.3805 41.3565 30.5712 40.7945 30.5833H40.3751C40.275 30.5833 39.1234 30.4832 38.7791 30.0388L30.1358 19.5429V29.5569C30.1367 29.6914 30.1109 29.8247 30.06 29.9492C30.0091 30.0737 29.9341 30.1869 29.8393 30.2823C29.7444 30.3777 29.6317 30.4534 29.5075 30.5051C29.3833 30.5567 29.2502 30.5833 29.1157 30.5833H27.8639C27.7294 30.5833 27.5962 30.5567 27.4721 30.5051C27.3479 30.4534 27.2351 30.3777 27.1403 30.2823C27.0455 30.1869 26.9705 30.0737 26.9196 29.9492C26.8687 29.8247 26.8429 29.6914 26.8437 29.5569V14.7925C26.8519 14.5252 26.9647 14.2719 27.1579 14.0869C27.351 13.902 27.609 13.8002 27.8764 13.8037H29.1282C29.2697 13.8027 29.4098 13.8318 29.5393 13.889C29.6687 13.9462 29.7846 14.0301 29.8792 14.1354C29.9457 14.1872 30.0065 14.246 30.0607 14.3106L40.4377 26.8844C40.4529 26.9039 40.4724 26.9197 40.4946 26.9305C40.5169 26.9414 40.5413 26.947 40.566 26.947C40.5907 26.947 40.6152 26.9414 40.6374 26.9305C40.6596 26.9197 40.6791 26.9039 40.6943 26.8844L51.0775 14.2793C51.1702 14.1695 51.2827 14.0782 51.4093 14.0102C51.586 13.865 51.8064 13.7835 52.0351 13.7786H53.2869C53.4219 13.7761 53.5561 13.8005 53.6816 13.8502C53.8071 13.9 53.9215 13.9742 54.0182 14.0685C54.1148 14.1628 54.1918 14.2754 54.2446 14.3997C54.2974 14.524 54.325 14.6575 54.3258 14.7925Z" fill="#FDFAF8"/>
<path d="M7.17873 38.4004V45.7231C7.17873 46.2758 7.39831 46.8059 7.78916 47.1968C8.18002 47.5877 8.71013 47.8072 9.26288 47.8072H54.2382C54.3302 47.8072 54.4214 47.8254 54.5064 47.8606C54.5915 47.8958 54.6687 47.9474 54.7338 48.0125C54.7989 48.0776 54.8506 48.1549 54.8858 48.24C54.921 48.325 54.9391 48.4162 54.9391 48.5082V49.5847C54.9391 49.7646 54.8681 49.9371 54.7415 50.0649C54.615 50.1927 54.443 50.2653 54.2632 50.2669H9.0626C7.74795 50.2669 6.48714 49.7447 5.55753 48.8151C4.62793 47.8855 4.10569 46.6246 4.10569 45.31V38.6132C4.10486 37.962 4.23251 37.317 4.48133 36.7153C4.73015 36.1135 5.09524 35.5667 5.5557 35.1063C6.01615 34.6458 6.56293 34.2807 7.1647 34.0319C7.76647 33.7831 8.41142 33.6554 9.0626 33.6563H54.2632C54.4425 33.6563 54.6144 33.7275 54.7412 33.8542C54.8679 33.981 54.9391 34.1529 54.9391 34.3322V35.6653C54.9391 35.8313 54.8732 35.9905 54.7558 36.1079C54.6385 36.2252 54.4793 36.2912 54.3133 36.2912H9.26288C8.98683 36.2903 8.71337 36.3445 8.45848 36.4505C8.20359 36.5565 7.97238 36.7122 7.77835 36.9086C7.58432 37.1049 7.43136 37.338 7.3284 37.5941C7.22545 37.8503 7.17457 38.1243 7.17873 38.4004Z" fill="#FDFAF8"/>
<path d="M69.4719 24.1056V9.6479H75.5679C76.9818 9.62042 78.3815 9.93385 79.6486 10.5617C80.7869 11.1287 81.7383 12.0107 82.39 13.1027C83.0579 14.2397 83.398 15.5395 83.3726 16.858C83.3977 18.1764 83.0576 19.4761 82.39 20.6132C81.7386 21.7193 80.7826 22.6145 79.6361 23.1918C78.3684 23.8175 76.9688 24.1287 75.5554 24.0993L69.4719 24.1056ZM71.5373 22.3093H75.4428C76.5259 22.3404 77.6002 22.1062 78.5721 21.6271C79.4191 21.1989 80.1252 20.5363 80.6062 19.7182C81.099 18.8537 81.3478 17.8716 81.326 16.8767C81.3492 15.8797 81.1004 14.8952 80.6062 14.029C80.1181 13.2244 79.4131 12.5737 78.5721 12.1514C77.5986 11.6776 76.5251 11.4457 75.4428 11.4755H71.5373V22.3093Z" fill="#FDFAF8"/>
<path d="M90.9207 24.2307C89.9005 24.2483 88.8933 24.0002 87.9979 23.5109C87.1511 23.0426 86.4479 22.3523 85.9638 21.5144C85.4601 20.6396 85.2027 19.6447 85.219 18.6354C85.1996 17.6257 85.4572 16.63 85.9638 15.7564C86.4545 14.9392 87.1517 14.2657 87.9854 13.8036C88.8843 13.3119 89.8963 13.0638 90.9207 13.0839C91.9406 13.0691 92.9471 13.317 93.8436 13.8036C94.6854 14.2631 95.3847 14.9451 95.8651 15.7751C96.3668 16.6551 96.6219 17.654 96.6037 18.6667C96.6219 19.6794 96.3668 20.6783 95.8651 21.5582C95.3834 22.3905 94.6847 23.0762 93.8436 23.5422C92.9452 24.0207 91.9381 24.2579 90.9207 24.2307ZM90.9207 22.497C91.5774 22.5054 92.2248 22.3414 92.7983 22.0214C93.3573 21.7065 93.8137 21.2371 94.1127 20.6695C94.4361 20.0411 94.5974 19.3419 94.5821 18.6354C94.6004 17.9285 94.4389 17.2286 94.1127 16.6013C93.8059 16.0442 93.351 15.5829 92.7983 15.2682C92.2248 14.9482 91.5774 14.7842 90.9207 14.7925C90.2636 14.7803 89.6152 14.9445 89.0431 15.2682C88.4915 15.5863 88.0354 16.0467 87.7225 16.6013C87.3773 17.2226 87.2044 17.9248 87.2218 18.6354C87.2074 19.3456 87.3801 20.0471 87.7225 20.6695C88.0274 21.2349 88.485 21.7033 89.0431 22.0214C89.6152 22.345 90.2636 22.5093 90.9207 22.497Z" fill="#FDFAF8"/>
<path d="M103.951 24.2307C103.101 24.2497 102.258 24.0741 101.485 23.7174C100.781 23.3772 100.203 22.8229 99.8331 22.134C99.4122 21.3079 99.2097 20.3879 99.2448 19.4615V13.1777H101.229V19.255C101.173 20.1258 101.456 20.9845 102.017 21.6521C102.306 21.9299 102.649 22.1446 103.025 22.2825C103.401 22.4205 103.802 22.4786 104.202 22.4532C104.826 22.469 105.445 22.3246 105.998 22.0338C106.509 21.7473 106.92 21.3103 107.175 20.7821C107.466 20.1666 107.607 19.4911 107.588 18.8106V13.1777H109.528V24.1055H107.65V21.1576L107.963 21.94C107.629 22.6534 107.083 23.246 106.399 23.6361C105.648 24.0432 104.805 24.2482 103.951 24.2307Z" fill="#FDFAF8"/>
<path d="M113.327 24.1055V8.79663H115.311V16.0755L115.104 18.6166L115.23 21.1576V24.1055H113.327ZM119.135 24.2306C118.261 24.2398 117.399 24.0243 116.632 23.6048C115.87 23.1656 115.254 22.5128 114.86 21.7272C114.398 20.7514 114.183 19.6765 114.235 18.5978C114.195 17.5253 114.425 16.4601 114.904 15.4997C115.304 14.7102 115.929 14.0568 116.7 13.6221C117.467 13.2018 118.33 12.9863 119.204 12.9962C120.198 12.9758 121.18 13.2176 122.052 13.6972C122.845 14.1891 123.491 14.8852 123.923 15.7125C124.419 16.6053 124.667 17.6144 124.643 18.6353C124.666 19.6601 124.418 20.6728 123.923 21.5707C123.458 22.3902 122.779 23.0675 121.958 23.5297C121.094 24.005 120.121 24.2467 119.135 24.2306ZM118.966 22.497C119.623 22.5071 120.271 22.343 120.844 22.0213C121.407 21.7138 121.869 21.2511 122.177 20.6882C122.512 20.0636 122.68 19.3629 122.665 18.6541C122.684 17.945 122.515 17.2435 122.177 16.62C121.868 16.0627 121.411 15.6015 120.856 15.2869C120.283 14.9653 119.636 14.8011 118.979 14.8113C118.321 14.799 117.673 14.9633 117.101 15.2869C116.553 15.5995 116.099 16.0534 115.787 16.6013C115.453 17.2264 115.287 17.9271 115.305 18.6353C115.287 19.3496 115.453 20.0564 115.787 20.6882C116.092 21.2553 116.552 21.724 117.114 22.0401C117.68 22.3529 118.319 22.5105 118.966 22.497Z" fill="#FDFAF8"/>
<path d="M127.415 24.1055V8.79663H129.399V24.1055H127.415Z" fill="#FDFAF8"/>
<path d="M138.055 24.2306C136.98 24.2546 135.917 24.007 134.963 23.5109C134.103 23.0553 133.388 22.368 132.898 21.5269C132.398 20.6463 132.145 19.6475 132.166 18.6353C132.146 17.6256 132.392 16.6284 132.879 15.7438C133.344 14.9313 134.021 14.2605 134.838 13.8036C135.706 13.3045 136.691 13.0473 137.692 13.0588C138.674 13.0385 139.645 13.2805 140.502 13.7598C141.31 14.2263 141.971 14.9092 142.411 15.7313C142.888 16.6459 143.125 17.6667 143.1 18.6979C143.1 18.7793 143.1 18.8732 143.1 18.9858C143.1 19.0985 143.1 19.1986 143.068 19.2987H133.718V17.8718H141.998L141.191 18.3662C141.215 17.7132 141.066 17.0655 140.759 16.4886C140.469 15.9514 140.035 15.5052 139.507 15.1993C138.942 14.8914 138.308 14.7301 137.664 14.7301C137.02 14.7301 136.386 14.8914 135.821 15.1993C135.289 15.5031 134.854 15.9526 134.569 16.4948C134.256 17.0837 134.098 17.7431 134.112 18.41V18.7355C134.1 19.4204 134.275 20.0957 134.619 20.6882C134.952 21.2599 135.443 21.7229 136.034 22.0213C136.678 22.3495 137.394 22.5129 138.118 22.497C138.724 22.5042 139.326 22.3915 139.889 22.1652C140.419 21.942 140.894 21.6043 141.278 21.1764L142.374 22.4281C141.874 23.0126 141.241 23.4678 140.527 23.755C139.742 24.0735 138.902 24.2351 138.055 24.2306Z" fill="#FDFAF8"/>
<path d="M144.251 14.7925V13.1777H151.23V14.8112L144.251 14.7925ZM149.584 24.2306C149.12 24.2601 148.654 24.1967 148.214 24.0441C147.775 23.8915 147.37 23.6528 147.024 23.3419C146.706 23.0034 146.462 22.603 146.306 22.1658C146.15 21.7287 146.085 21.264 146.117 20.8008V10.7869H148.094V20.7382C148.062 21.2332 148.221 21.7217 148.539 22.1026C148.703 22.2649 148.899 22.391 149.114 22.473C149.33 22.5549 149.56 22.5908 149.79 22.5783C150.353 22.597 150.904 22.4126 151.343 22.0588L151.968 23.4858C151.652 23.7558 151.28 23.9544 150.879 24.0679C150.457 24.1815 150.021 24.2363 149.584 24.2306Z" fill="#FDFAF8"/>
<path d="M160.224 24.1055V9.64783H161.92L168.404 20.5756H167.484L173.887 9.64783H175.583V24.1055H173.618V12.7709H174.093L168.36 22.353H167.421L161.682 12.7709H162.195V24.1055H160.224Z" fill="#FDFAF8"/>
<path d="M182.849 24.2307C182.116 24.247 181.389 24.1062 180.715 23.8177C180.144 23.5785 179.653 23.1811 179.3 22.6723C178.967 22.1817 178.792 21.6006 178.8 21.0075C178.794 20.4427 178.941 19.8869 179.225 19.399C179.553 18.8771 180.037 18.472 180.608 18.2411C181.433 17.9198 182.315 17.7728 183.2 17.8093H186.673V19.2363H183.281C182.576 19.155 181.865 19.3306 181.278 19.7307C181.113 19.8825 180.982 20.0675 180.894 20.2735C180.805 20.4795 180.761 20.7019 180.765 20.9261C180.756 21.1757 180.809 21.4237 180.918 21.6484C181.027 21.8731 181.189 22.0677 181.391 22.2154C181.914 22.569 182.538 22.7405 183.168 22.7036C183.852 22.7197 184.527 22.5487 185.121 22.2092C185.676 21.8786 186.102 21.3687 186.329 20.7634L186.723 22.1278C186.451 22.7839 185.96 23.3256 185.334 23.6612C184.57 24.0663 183.713 24.2628 182.849 24.2307ZM186.442 24.1056V21.7961L186.341 21.3642V17.415C186.363 17.0563 186.309 16.6971 186.183 16.3606C186.057 16.0242 185.861 15.7181 185.609 15.4622C184.989 14.9604 184.201 14.7142 183.406 14.7738C182.767 14.776 182.133 14.8839 181.528 15.093C180.957 15.2799 180.424 15.5706 179.958 15.9504L179.131 14.4608C179.736 13.9863 180.427 13.6335 181.165 13.4219C181.977 13.175 182.821 13.0526 183.669 13.0589C184.921 12.9766 186.159 13.3675 187.136 14.1542C187.95 14.8802 188.357 16.0318 188.357 17.4963V24.1056H186.442Z" fill="#FDFAF8"/>
<path d="M197.845 13.0589C198.663 13.0408 199.474 13.2167 200.211 13.5721C200.893 13.9172 201.451 14.4663 201.807 15.143C202.224 15.9681 202.424 16.8856 202.389 17.8093V24.1055H200.405V18.0346C200.477 17.1681 200.208 16.3078 199.654 15.6375C199.366 15.3604 199.024 15.1462 198.649 15.0083C198.274 14.8704 197.874 14.8118 197.476 14.8364C196.838 14.8219 196.206 14.9637 195.636 15.2494C195.118 15.5213 194.697 15.945 194.428 16.4636C194.128 17.0897 193.984 17.779 194.008 18.4727V24.1055H192.024V13.1778H193.902V16.1319L193.589 15.3496C193.952 14.6183 194.543 14.0251 195.273 13.6597C196.067 13.2496 196.951 13.0432 197.845 13.0589Z" fill="#FDFAF8"/>
<path d="M209.267 24.2306C208.533 24.2462 207.803 24.1054 207.127 23.8175C206.557 23.5766 206.067 23.1795 205.712 22.6722C205.381 22.1808 205.209 21.5998 205.218 21.0074C205.209 20.4423 205.357 19.8858 205.643 19.3989C205.97 18.8759 206.454 18.4704 207.027 18.241C207.851 17.9197 208.734 17.7727 209.618 17.8092H213.085V19.2361H209.699C208.994 19.1549 208.283 19.3305 207.696 19.7306C207.531 19.8821 207.399 20.0669 207.309 20.2728C207.219 20.4788 207.174 20.7014 207.177 20.926C207.169 21.1756 207.222 21.4233 207.331 21.6479C207.44 21.8725 207.602 22.0672 207.803 22.2153C208.325 22.5697 208.95 22.7414 209.58 22.7035C210.262 22.7184 210.935 22.5475 211.527 22.209C212.083 21.8801 212.51 21.3696 212.735 20.7633L213.129 22.1277C212.859 22.7836 212.371 23.3256 211.746 23.6611C210.983 24.0635 210.129 24.2598 209.267 24.2306ZM212.86 24.1054V21.796L212.753 21.3641V17.4149C212.775 17.0562 212.721 16.697 212.595 16.3605C212.469 16.0241 212.273 15.718 212.021 15.4621C211.403 14.9618 210.617 14.7157 209.824 14.7737C209.185 14.776 208.551 14.8839 207.947 15.0929C207.375 15.2813 206.843 15.5718 206.376 15.9503L205.55 14.4607C206.156 13.9887 206.846 13.6361 207.584 13.4218C208.395 13.1757 209.239 13.0534 210.087 13.0588C211.341 12.9749 212.581 13.3659 213.561 14.1541C214.368 14.8801 214.775 16.0317 214.775 17.4962V24.1054H212.86Z" fill="#FDFAF8"/>
<path d="M222.961 23.6549C221.973 23.6718 220.996 23.4416 220.12 22.9852C219.301 22.5498 218.616 21.901 218.136 21.1076C217.638 20.2721 217.384 19.3137 217.404 18.3412C217.38 17.3643 217.634 16.4008 218.136 15.5623C218.615 14.7762 219.301 14.1374 220.12 13.716C220.997 13.2618 221.974 13.0338 222.961 13.0526C223.847 13.0405 224.724 13.2355 225.521 13.6221C226.298 14.0052 226.942 14.6138 227.367 15.3683C227.862 16.2787 228.102 17.3058 228.062 18.3412C228.103 19.3767 227.863 20.4038 227.367 21.3141C226.935 22.0682 226.294 22.6811 225.521 23.0791C224.725 23.4698 223.848 23.6671 222.961 23.6549ZM223.205 28.2363C222.216 28.2391 221.231 28.0979 220.283 27.8169C219.437 27.5836 218.652 27.1717 217.979 26.609L218.931 25.0694C219.485 25.5313 220.122 25.8838 220.808 26.1083C221.56 26.3651 222.349 26.4942 223.143 26.4901C223.655 26.5344 224.171 26.477 224.66 26.3212C225.15 26.1655 225.604 25.9145 225.997 25.5826C226.325 25.2051 226.574 24.766 226.73 24.2909C226.885 23.8159 226.945 23.3145 226.904 22.8162V20.5005L227.111 18.335L227.004 16.1444V13.1778H228.882V22.6222C228.882 24.5499 228.4 25.9643 227.436 26.8781C226.472 27.7919 225.064 28.2363 223.205 28.2363ZM223.205 21.9212C223.88 21.9319 224.547 21.7749 225.146 21.4643C225.696 21.177 226.157 20.744 226.479 20.2126C226.795 19.6441 226.961 19.0043 226.961 18.3537C226.961 17.7032 226.795 17.0634 226.479 16.4949C226.16 15.9616 225.698 15.5281 225.146 15.2431C224.545 14.9396 223.879 14.787 223.205 14.7988C222.528 14.787 221.858 14.9395 221.253 15.2431C220.696 15.5259 220.229 15.9597 219.907 16.4949C219.591 17.0634 219.425 17.7032 219.425 18.3537C219.425 19.0043 219.591 19.6441 219.907 20.2126C220.232 20.7459 220.697 21.1791 221.253 21.4643C221.849 21.7785 222.513 21.9418 223.187 21.94L223.205 21.9212Z" fill="#FDFAF8"/>
<path d="M237.538 24.2307C236.465 24.2547 235.404 24.0071 234.452 23.5109C233.592 23.0554 232.877 22.3681 232.387 21.5269C231.887 20.6464 231.635 19.6475 231.655 18.6354C231.635 17.6256 231.881 16.6284 232.368 15.7438C232.833 14.9313 233.51 14.2606 234.327 13.8036C235.188 13.3203 236.162 13.0741 237.15 13.0901C238.13 13.0691 239.099 13.3112 239.954 13.7911C240.764 14.2568 241.427 14.9397 241.869 15.7626C242.343 16.6784 242.58 17.6984 242.557 18.7293C242.557 18.8106 242.557 18.9045 242.557 19.0172C242.557 19.1298 242.557 19.2299 242.526 19.3301H233.201V17.8718H241.487L240.68 18.3662C240.704 17.7133 240.555 17.0656 240.248 16.4886C239.958 15.9515 239.524 15.5052 238.996 15.1993C238.431 14.8915 237.797 14.7302 237.153 14.7302C236.509 14.7302 235.875 14.8915 235.31 15.1993C234.778 15.5032 234.343 15.9526 234.058 16.4949C233.745 17.0838 233.587 17.7431 233.601 18.4101V18.7355C233.579 19.4175 233.744 20.0926 234.077 20.6882C234.41 21.2599 234.901 21.723 235.491 22.0213C236.136 22.3496 236.852 22.513 237.575 22.497C238.18 22.5048 238.78 22.392 239.34 22.1653C239.874 21.9438 240.35 21.6059 240.736 21.1764L241.831 22.4282C241.331 23.0114 240.698 23.4663 239.985 23.755C239.208 24.0702 238.377 24.2317 237.538 24.2307Z" fill="#FDFAF8"/>
<path d="M258.999 13.0588C259.807 13.0414 260.608 13.2173 261.334 13.572C262.011 13.9183 262.562 14.4676 262.911 15.143C263.325 15.9692 263.525 16.8858 263.493 17.8092V24.1055H261.509V18.0345C261.575 17.1698 261.309 16.3124 260.764 15.6374C260.494 15.3632 260.168 15.1498 259.809 15.0117C259.449 14.8735 259.064 14.8137 258.68 14.8363C258.076 14.8229 257.479 14.9651 256.946 15.2494C256.45 15.5281 256.05 15.9517 255.801 16.4636C255.514 17.0932 255.377 17.781 255.4 18.4726V24.1055H253.416V18.0345C253.48 17.1721 253.219 16.3172 252.684 15.6374C252.412 15.3622 252.084 15.1483 251.722 15.0102C251.361 14.872 250.974 14.8127 250.587 14.8363C249.99 14.8236 249.399 14.9659 248.873 15.2494C248.374 15.5293 247.971 15.9522 247.715 16.4636C247.42 17.0911 247.278 17.7797 247.302 18.4726V24.1055H245.318V13.1777H247.195V16.0943L246.882 15.3495C247.221 14.6326 247.777 14.041 248.472 13.6597C249.238 13.2381 250.101 13.0224 250.976 13.0338C251.935 13.008 252.879 13.279 253.679 13.8099C254.463 14.3654 254.997 15.2057 255.169 16.1506L254.362 15.8189C254.703 14.9716 255.318 14.2624 256.108 13.8036C256.983 13.2895 257.985 13.0315 258.999 13.0588Z" fill="#FDFAF8"/>
<path d="M272.011 24.2307C270.938 24.2547 269.877 24.0071 268.925 23.5109C268.065 23.0554 267.35 22.3681 266.86 21.5269C266.361 20.6464 266.108 19.6475 266.128 18.6354C266.106 17.6262 266.35 16.629 266.835 15.7439C267.302 14.9309 267.981 14.2602 268.8 13.8036C269.66 13.3211 270.631 13.0749 271.617 13.0902C272.599 13.0689 273.569 13.311 274.427 13.7911C275.225 14.2596 275.875 14.9427 276.305 15.7626C276.783 16.6768 277.023 17.6975 276.999 18.7293C276.999 18.8106 276.999 18.9045 276.999 19.0172C276.999 19.1298 276.999 19.23 276.968 19.3301H267.674V17.8718H275.954L275.153 18.3663C275.178 17.7125 275.026 17.064 274.715 16.4886C274.425 15.9511 273.992 15.5047 273.463 15.1993C272.897 14.8915 272.264 14.7302 271.62 14.7302C270.976 14.7302 270.342 14.8915 269.777 15.1993C269.246 15.5056 268.813 15.9545 268.525 16.4949C268.216 17.0853 268.061 17.744 268.074 18.4101V18.7355C268.062 19.4205 268.237 20.0958 268.581 20.6882C268.912 21.2613 269.404 21.7248 269.996 22.0214C270.641 22.3496 271.357 22.513 272.08 22.497C272.684 22.5036 273.284 22.3909 273.845 22.1653C274.378 21.9438 274.855 21.6059 275.241 21.1764L276.336 22.4282C275.827 23.0162 275.182 23.4716 274.458 23.755C273.681 24.071 272.85 24.2325 272.011 24.2307Z" fill="#FDFAF8"/>
<path d="M285.624 13.0588C286.442 13.0407 287.252 13.2166 287.989 13.5721C288.672 13.9172 289.229 14.4663 289.585 15.143C290.002 15.9681 290.202 16.8855 290.167 17.8092V24.1055H288.183V18.0345C288.249 17.1647 287.97 16.304 287.407 15.6374C287.119 15.3604 286.777 15.1461 286.402 15.0082C286.027 14.8703 285.628 14.8118 285.229 14.8363C284.591 14.8219 283.96 14.9637 283.389 15.2494C282.872 15.5212 282.45 15.945 282.181 16.4636C281.881 17.0896 281.737 17.7789 281.762 18.4726V24.1055H279.765V13.1778H281.643V16.1319L281.336 15.3495C281.694 14.6301 282.273 14.0444 282.989 13.6785C283.8 13.2516 284.707 13.0384 285.624 13.0588Z" fill="#FDFAF8"/>
<path d="M292.283 14.7925V13.1777H299.268V14.8112L292.283 14.7925ZM297.616 24.2306C297.151 24.2605 296.685 24.1973 296.246 24.0446C295.806 23.892 295.402 23.6531 295.056 23.3419C294.741 23.0021 294.499 22.6013 294.345 22.1642C294.191 21.7271 294.128 21.2631 294.161 20.8008V10.7869H296.145V20.7382C296.112 21.2332 296.271 21.7217 296.589 22.1026C296.753 22.2652 296.949 22.3916 297.164 22.4735C297.38 22.5555 297.611 22.5912 297.841 22.5783C298.402 22.5972 298.951 22.4127 299.387 22.0588L300.013 23.4858C299.695 23.7547 299.324 23.9531 298.924 24.0679C298.493 24.1834 298.049 24.2382 297.603 24.2306H297.616Z" fill="#FDFAF8"/>
<path d="M75.4052 48.4144C74.4363 48.4229 73.4745 48.2488 72.57 47.9012C71.7308 47.5728 70.965 47.0815 70.3169 46.4554C69.6851 45.8285 69.185 45.0816 68.8461 44.2586C68.1365 42.4913 68.1365 40.5183 68.8461 38.751C69.1926 37.9278 69.7013 37.1828 70.3419 36.5604C70.993 35.935 71.7607 35.4438 72.6013 35.1146C74.4177 34.4367 76.4177 34.4367 78.2342 35.1146C79.0743 35.4233 79.8262 35.9325 80.4247 36.5979L79.4859 37.4929C78.9724 36.9422 78.3413 36.5143 77.6396 36.2412C76.2019 35.7195 74.6245 35.7328 73.1959 36.2788C72.5034 36.5463 71.8745 36.9556 71.3496 37.4804C70.8337 37.9912 70.4214 38.5969 70.1354 39.2642C69.5509 40.7008 69.5509 42.3088 70.1354 43.7454C70.4198 44.4154 70.8322 45.0234 71.3496 45.5354C71.8722 46.0466 72.4913 46.4487 73.1708 46.7183C73.8953 46.998 74.6662 47.1382 75.4428 47.1314C76.1847 47.1399 76.9215 47.0082 77.6146 46.7433C78.3146 46.4671 78.9451 46.0396 79.4609 45.4916L80.3684 46.4054C79.767 47.069 79.0161 47.5796 78.1778 47.895C77.2942 48.2397 76.3537 48.4159 75.4052 48.4144Z" fill="#FDFAF8"/>
<path d="M86.8713 48.3957C85.9411 48.4115 85.0232 48.1804 84.2113 47.726C83.4394 47.2781 82.8035 46.6292 82.3713 45.8484C81.9232 45.0232 81.6885 44.0992 81.6885 43.1602C81.6885 42.2213 81.9232 41.2972 82.3713 40.4721C82.8083 39.7095 83.4443 39.08 84.2113 38.6508C85.0238 38.1986 85.9416 37.9697 86.8713 37.9874C87.8096 37.9711 88.7356 38.202 89.5563 38.6571C90.3182 39.1005 90.9472 39.7403 91.3776 40.5097C91.8488 41.334 92.0888 42.2703 92.0723 43.2197C92.0766 44.1518 91.8371 45.0687 91.3776 45.8797C90.9362 46.6662 90.2865 47.3159 89.5 47.7573C88.6924 48.1904 87.7876 48.4101 86.8713 48.3957ZM86.8713 47.1439C87.5569 47.1583 88.2337 46.9875 88.8303 46.6495C89.4018 46.3208 89.8684 45.8369 90.1759 45.2538C90.5008 44.6049 90.67 43.8891 90.67 43.1634C90.67 42.4376 90.5008 41.7219 90.1759 41.073C89.8647 40.4941 89.3988 40.0131 88.8303 39.6835C88.235 39.3592 87.568 39.1893 86.8901 39.1893C86.2122 39.1893 85.5451 39.3592 84.9499 39.6835C84.3805 40.0161 83.9113 40.4961 83.5917 41.073C83.2585 41.7194 83.0847 42.4361 83.0847 43.1634C83.0847 43.8906 83.2585 44.6074 83.5917 45.2538C83.9047 45.833 84.37 46.3156 84.9374 46.6495C85.5231 46.9945 86.1915 47.174 86.8713 47.169V47.1439Z" fill="#FDFAF8"/>
<path d="M100.083 38.0124C100.839 37.999 101.587 38.1618 102.268 38.4881C102.894 38.8087 103.407 39.3132 103.739 39.9338C104.119 40.6918 104.302 41.5335 104.271 42.381V48.2955H102.894V42.5187C102.958 41.6314 102.67 40.7546 102.092 40.0778C101.792 39.7945 101.436 39.5757 101.047 39.4347C100.659 39.2937 100.246 39.2335 99.8331 39.2579C99.1812 39.2451 98.5363 39.3935 97.9554 39.6897C97.4224 39.9724 96.9864 40.4085 96.7037 40.9415C96.3955 41.5585 96.245 42.2423 96.2656 42.9318V48.283H94.8887V38.1125H96.2093V40.9039L95.9965 40.3782C96.3131 39.6479 96.8576 39.0397 97.5486 38.6445C98.3209 38.2086 99.1969 37.9902 100.083 38.0124Z" fill="#FDFAF8"/>
<path d="M110.736 48.3956C109.925 48.4016 109.118 48.2791 108.345 48.0326C107.704 47.8488 107.105 47.5428 106.58 47.1313L107.206 46.0486C107.692 46.3947 108.228 46.6648 108.796 46.8497C109.449 47.0813 110.137 47.1978 110.83 47.1939C111.558 47.2488 112.287 47.09 112.926 46.737C113.124 46.6035 113.285 46.4223 113.395 46.2101C113.504 45.9979 113.558 45.7615 113.552 45.5228C113.561 45.3586 113.534 45.1944 113.472 45.0418C113.411 44.8893 113.316 44.7522 113.195 44.6404C112.923 44.4092 112.602 44.2423 112.257 44.1522C111.869 44.0458 111.43 43.9519 110.955 43.8705C110.479 43.7892 109.997 43.7078 109.528 43.6014C109.08 43.5071 108.646 43.3535 108.239 43.1445C107.861 42.953 107.538 42.6687 107.3 42.3184C107.037 41.9019 106.91 41.4143 106.937 40.9227C106.93 40.3888 107.095 39.8669 107.406 39.4331C107.75 38.9616 108.224 38.6005 108.771 38.3942C109.472 38.121 110.221 37.9911 110.974 38.0124C111.641 38.0135 112.306 38.1019 112.951 38.2752C113.529 38.4162 114.081 38.6486 114.585 38.9637L113.959 40.0715C113.515 39.7657 113.022 39.5391 112.501 39.4018C111.995 39.2656 111.473 39.1962 110.949 39.1953C110.24 39.1431 109.532 39.3091 108.921 39.6709C108.725 39.8068 108.566 39.9886 108.457 40.2002C108.348 40.4119 108.292 40.647 108.295 40.8851C108.285 41.0547 108.312 41.2244 108.375 41.3822C108.438 41.5401 108.534 41.6823 108.658 41.7989C108.933 42.0386 109.258 42.2139 109.609 42.3121C110.033 42.4449 110.466 42.5454 110.905 42.6125C111.38 42.6876 111.85 42.7815 112.319 42.8942C112.768 42.9929 113.205 43.142 113.621 43.3386C114.002 43.5162 114.33 43.7902 114.572 44.1334C114.827 44.537 114.951 45.0088 114.929 45.4853C114.943 46.0396 114.769 46.5823 114.435 47.0249C114.063 47.4904 113.565 47.84 113.001 48.0326C112.275 48.2912 111.507 48.4143 110.736 48.3956Z" fill="#FDFAF8"/>
<path d="M121.676 48.3956C120.891 48.4133 120.113 48.2461 119.404 47.9075C118.765 47.5914 118.24 47.0839 117.902 46.4554C117.524 45.7036 117.341 44.8684 117.37 44.027V38.1125H118.747V43.8455C118.706 44.2947 118.755 44.7476 118.892 45.1775C119.028 45.6074 119.249 46.0057 119.542 46.349C119.842 46.6329 120.198 46.8522 120.587 46.9932C120.975 47.1342 121.389 47.194 121.801 47.1689C122.454 47.1884 123.101 47.0397 123.679 46.7371C124.198 46.4524 124.617 46.0155 124.881 45.4853C125.176 44.8621 125.319 44.178 125.3 43.4888V38.1125H126.677V48.2955H125.356V45.5041L125.569 46.0048C125.264 46.7331 124.739 47.348 124.067 47.7635C123.346 48.1962 122.517 48.4154 121.676 48.3956Z" fill="#FDFAF8"/>
<path d="M130.507 48.2955V33.9004H131.884V48.2955H130.507Z" fill="#FDFAF8"/>
<path d="M134.168 39.2579V38.1125H140.477V39.2579H134.168ZM138.981 48.3956C138.58 48.44 138.173 48.3937 137.791 48.2602C137.41 48.1266 137.063 47.9093 136.777 47.624C136.49 47.3388 136.271 46.993 136.136 46.612C136.001 46.2311 135.953 45.8247 135.996 45.4227V35.8594H137.373V45.3476C137.34 45.8486 137.504 46.3426 137.83 46.7245C138.001 46.8941 138.206 47.0253 138.431 47.1095C138.657 47.1936 138.898 47.2288 139.138 47.2127C139.69 47.2321 140.231 47.0446 140.652 46.687L141.134 47.6759C140.853 47.9269 140.519 48.1128 140.158 48.2204C139.776 48.335 139.38 48.394 138.981 48.3956Z" fill="#FDFAF8"/>
<path d="M144.339 35.8594C144.206 35.8635 144.073 35.84 143.949 35.7905C143.825 35.7409 143.713 35.6664 143.619 35.5715C143.526 35.4804 143.453 35.3712 143.403 35.2507C143.354 35.1302 143.329 35.0008 143.331 34.8705C143.329 34.742 143.353 34.6144 143.402 34.4958C143.452 34.3772 143.526 34.2703 143.619 34.1821C143.714 34.0892 143.827 34.0164 143.951 33.968C144.074 33.9196 144.206 33.8966 144.339 33.9004C144.604 33.8955 144.862 33.9917 145.059 34.1696C145.152 34.2564 145.226 34.3621 145.276 34.4797C145.326 34.5973 145.35 34.7241 145.347 34.8518C145.35 34.9844 145.326 35.1163 145.278 35.2399C145.23 35.3635 145.157 35.4762 145.065 35.5715C144.971 35.6675 144.858 35.7427 144.733 35.7923C144.607 35.8419 144.473 35.8647 144.339 35.8594ZM143.638 48.2955V38.1126H145.015V48.2955H143.638Z" fill="#FDFAF8"/>
<path d="M154.059 38.0124C154.814 37.9983 155.562 38.1612 156.243 38.4881C156.872 38.8076 157.387 39.3122 157.72 39.9338C158.103 40.6912 158.288 41.533 158.259 42.381V48.2955H156.882V42.5187C156.914 42.0787 156.86 41.6367 156.721 41.2178C156.582 40.799 156.363 40.4116 156.074 40.0778C155.773 39.7945 155.418 39.5757 155.029 39.4347C154.641 39.2937 154.227 39.2335 153.815 39.2579C153.163 39.2451 152.518 39.3935 151.937 39.6897C151.406 39.9743 150.97 40.4098 150.685 40.9415C150.38 41.5596 150.23 42.2426 150.247 42.9318V48.283H148.87V38.1125H150.21V40.9039L149.997 40.3782C150.316 39.6491 150.86 39.0414 151.549 38.6445C152.314 38.2136 153.181 37.9953 154.059 38.0124Z" fill="#FDFAF8"/>
<path d="M166.069 47.9075C165.156 47.9255 164.253 47.7101 163.447 47.2816C162.686 46.8766 162.052 46.2703 161.613 45.5292C161.174 44.7418 160.943 43.8552 160.943 42.9537C160.943 42.0522 161.174 41.1656 161.613 40.3782C162.054 39.6421 162.688 39.0405 163.447 38.6383C164.255 38.2154 165.157 38.0003 166.069 38.0124C166.917 37.9983 167.755 38.1917 168.51 38.5757C169.237 38.952 169.837 39.5329 170.237 40.2468C170.661 41.0828 170.882 42.007 170.882 42.9443C170.882 43.8817 170.661 44.8058 170.237 45.6418C169.832 46.3551 169.233 46.9389 168.51 47.3254C167.758 47.7212 166.919 47.9214 166.069 47.9075ZM166.32 52.1572C165.411 52.1595 164.508 52.0223 163.641 51.7503C162.869 51.5278 162.16 51.1293 161.569 50.5862L162.264 49.541C162.785 49.9906 163.389 50.3349 164.041 50.5549C164.76 50.8126 165.518 50.9419 166.282 50.9367C167.315 51.0244 168.341 50.7005 169.136 50.0355C169.466 49.6519 169.716 49.2064 169.872 48.7249C170.028 48.2435 170.086 47.7358 170.043 47.2316V44.6905L170.237 42.9443L170.106 41.1981V38.1126H171.42V47.0563C171.42 48.815 170.995 50.1043 170.131 50.9242C169.267 51.7441 168.003 52.1572 166.32 52.1572ZM166.207 46.687C166.902 46.7006 167.589 46.5369 168.203 46.2114C168.773 45.9038 169.249 45.4474 169.58 44.8908C169.925 44.301 170.101 43.6274 170.087 42.9443C170.102 42.263 169.927 41.5911 169.58 41.0041C169.247 40.4507 168.772 39.9969 168.203 39.6898C167.586 39.3769 166.903 39.2138 166.21 39.2138C165.517 39.2138 164.835 39.3769 164.217 39.6898C163.644 39.9914 163.168 40.4465 162.84 41.0041C162.5 41.5933 162.329 42.2645 162.345 42.9443C162.33 43.626 162.501 44.2989 162.84 44.8908C163.166 45.4515 163.643 45.9091 164.217 46.2114C164.829 46.5354 165.514 46.699 166.207 46.687Z" fill="#FDFAF8"/>
<path d="M180.64 48.2954V34.714H182.073V47.0562H189.684V48.308L180.64 48.2954Z" fill="#FDFAF8"/>
<path d="M193.445 48.2956V35.9596H188.67V34.7079H199.654V35.9596H194.878V48.2956H193.445Z" fill="#FDFAF8"/>
<path d="M201.945 48.2956V34.7141H207.471C208.793 34.684 210.102 34.9807 211.283 35.5778C212.342 36.121 213.227 36.9518 213.836 37.9749C214.436 39.0548 214.75 40.2697 214.75 41.5048C214.75 42.74 214.436 43.9548 213.836 45.0348C213.229 46.0592 212.343 46.8904 211.283 47.4319C210.102 48.029 208.793 48.3257 207.471 48.2956H201.945ZM203.378 47.0438H207.396C208.481 47.0682 209.556 46.8253 210.525 46.3366C211.382 45.887 212.096 45.2089 212.591 44.3776C213.071 43.4907 213.323 42.4979 213.323 41.4892C213.323 40.4805 213.071 39.4877 212.591 38.6008C212.096 37.7733 211.381 37.0994 210.525 36.6543C209.557 36.1627 208.482 35.9196 207.396 35.9471H203.409L203.378 47.0438Z" fill="#FDFAF8"/>
<path d="M217.428 48.3957C217.291 48.3975 217.155 48.3706 217.029 48.3167C216.903 48.2628 216.79 48.1831 216.696 48.0827C216.598 47.983 216.521 47.8646 216.469 47.7346C216.417 47.6045 216.393 47.4653 216.396 47.3254C216.385 47.1835 216.403 47.0408 216.45 46.9063C216.496 46.7718 216.57 46.6484 216.667 46.5438C216.764 46.4393 216.881 46.3559 217.012 46.2989C217.142 46.2418 217.283 46.2124 217.425 46.2124C217.568 46.2124 217.708 46.2418 217.839 46.2989C217.969 46.3559 218.087 46.4393 218.183 46.5438C218.28 46.6484 218.354 46.7718 218.401 46.9063C218.448 47.0408 218.466 47.1835 218.455 47.3254C218.458 47.4653 218.433 47.6045 218.381 47.7346C218.33 47.8646 218.253 47.983 218.154 48.0827C218.062 48.1823 217.949 48.2616 217.824 48.3154C217.699 48.3693 217.564 48.3966 217.428 48.3957Z" fill="#FDFAF8"/>
<path d="M16.845 72.5514H20.175L20.067 73.1184H16.737L16.845 72.5514ZM16.332 75.4584H20.121L20.004 76.0344H15.558L16.818 69.7344H21.138L21.021 70.3104H17.358L16.332 75.4584ZM24.6925 71.2644C25.1185 71.2644 25.4665 71.3484 25.7365 71.5164C26.0125 71.6784 26.2015 71.9154 26.3035 72.2274C26.4115 72.5394 26.4205 72.9114 26.3305 73.3434L25.7905 76.0344H25.1515L25.6915 73.3344C25.7875 72.8664 25.7365 72.5004 25.5385 72.2364C25.3465 71.9724 25.0045 71.8404 24.5125 71.8404C24.0085 71.8404 23.5885 71.9784 23.2525 72.2544C22.9225 72.5304 22.7005 72.9444 22.5865 73.4964L22.0825 76.0344H21.4435L22.3795 71.3094H22.9915L22.7215 72.6684L22.5865 72.4344C22.8145 72.0264 23.1085 71.7294 23.4685 71.5434C23.8345 71.3574 24.2425 71.2644 24.6925 71.2644ZM29.5415 76.0794C29.1395 76.0794 28.7825 75.9984 28.4705 75.8364C28.1585 75.6744 27.9155 75.4434 27.7415 75.1434C27.5675 74.8434 27.4805 74.4864 27.4805 74.0724C27.4805 73.6704 27.5465 73.2984 27.6785 72.9564C27.8105 72.6144 27.9965 72.3174 28.2365 72.0654C28.4765 71.8074 28.7585 71.6094 29.0825 71.4714C29.4125 71.3334 29.7695 71.2644 30.1535 71.2644C30.5675 71.2644 30.9185 71.3394 31.2065 71.4894C31.4945 71.6334 31.7165 71.8464 31.8725 72.1284C32.0285 72.4044 32.1065 72.7404 32.1065 73.1364C32.1065 73.7064 32.0015 74.2134 31.7915 74.6574C31.5815 75.1014 31.2845 75.4494 30.9005 75.7014C30.5165 75.9534 30.0635 76.0794 29.5415 76.0794ZM29.6765 75.5124C30.0725 75.5124 30.4235 75.4194 30.7295 75.2334C31.0415 75.0414 31.2845 74.7774 31.4585 74.4414C31.6385 74.1054 31.7285 73.7244 31.7285 73.2984C31.7285 72.8304 31.5905 72.4674 31.3145 72.2094C31.0445 71.9514 30.6635 71.8224 30.1715 71.8224C29.7815 71.8224 29.4305 71.9184 29.1185 72.1104C28.8065 72.3024 28.5605 72.5664 28.3805 72.9024C28.2065 73.2324 28.1195 73.6134 28.1195 74.0454C28.1195 74.5074 28.2545 74.8674 28.5245 75.1254C28.8005 75.3834 29.1845 75.5124 29.6765 75.5124ZM31.2335 76.0344L31.5035 74.6754L31.7735 73.7214L31.8635 72.7314L32.1515 71.3094H32.7905L31.8455 76.0344H31.2335ZM33.6251 76.0344L34.9571 69.3564H35.5961L34.9301 72.6774L34.6421 73.6134L34.5341 74.5314L34.2371 76.0344H33.6251ZM36.2531 76.0794C35.8451 76.0794 35.4941 76.0074 35.2001 75.8634C34.9121 75.7134 34.6901 75.5004 34.5341 75.2244C34.3841 74.9424 34.3061 74.6034 34.3001 74.2074C34.3001 73.7754 34.3601 73.3794 34.4801 73.0194C34.6001 72.6594 34.7711 72.3504 34.9931 72.0924C35.2211 71.8284 35.4911 71.6244 35.8031 71.4804C36.1211 71.3364 36.4751 71.2644 36.8651 71.2644C37.2731 71.2644 37.6301 71.3454 37.9361 71.5074C38.2481 71.6634 38.4911 71.8914 38.6651 72.1914C38.8451 72.4914 38.9351 72.8484 38.9351 73.2624C38.9351 73.6704 38.8691 74.0454 38.7371 74.3874C38.6051 74.7294 38.4161 75.0264 38.1701 75.2784C37.9301 75.5304 37.6481 75.7284 37.3241 75.8724C37.0001 76.0104 36.6431 76.0794 36.2531 76.0794ZM36.2441 75.5124C36.6401 75.5124 36.9911 75.4194 37.2971 75.2334C37.6031 75.0414 37.8431 74.7774 38.0171 74.4414C38.1971 74.1054 38.2871 73.7244 38.2871 73.2984C38.2871 72.8304 38.1521 72.4674 37.8821 72.2094C37.6121 71.9514 37.2281 71.8224 36.7301 71.8224C36.3401 71.8224 35.9891 71.9184 35.6771 72.1104C35.3711 72.3024 35.1281 72.5664 34.9481 72.9024C34.7741 73.2324 34.6871 73.6134 34.6871 74.0454C34.6871 74.5074 34.8221 74.8674 35.0921 75.1254C35.3621 75.3834 35.7461 75.5124 36.2441 75.5124ZM39.7248 76.0344L41.0568 69.3564H41.6958L40.3638 76.0344H39.7248ZM42.1418 76.0344L43.0778 71.3094H43.7168L42.7808 76.0344H42.1418ZM43.6718 70.2654C43.5458 70.2654 43.4408 70.2234 43.3568 70.1394C43.2788 70.0554 43.2398 69.9564 43.2398 69.8424C43.2398 69.7104 43.2848 69.5964 43.3748 69.5004C43.4708 69.4044 43.5908 69.3564 43.7348 69.3564C43.8608 69.3564 43.9658 69.3954 44.0498 69.4734C44.1338 69.5514 44.1758 69.6504 44.1758 69.7704C44.1758 69.9144 44.1278 70.0344 44.0317 70.1304C43.9358 70.2204 43.8158 70.2654 43.6718 70.2654ZM47.8077 71.2644C48.2337 71.2644 48.5817 71.3484 48.8517 71.5164C49.1277 71.6784 49.3167 71.9154 49.4187 72.2274C49.5267 72.5394 49.5357 72.9114 49.4457 73.3434L48.9057 76.0344H48.2667L48.8067 73.3344C48.9027 72.8664 48.8517 72.5004 48.6537 72.2364C48.4617 71.9724 48.1197 71.8404 47.6277 71.8404C47.1237 71.8404 46.7037 71.9784 46.3677 72.2544C46.0377 72.5304 45.8157 72.9444 45.7017 73.4964L45.1977 76.0344H44.5587L45.4947 71.3094H46.1067L45.8367 72.6684L45.7017 72.4344C45.9297 72.0264 46.2237 71.7294 46.5837 71.5434C46.9497 71.3574 47.3577 71.2644 47.8077 71.2644ZM52.3868 77.8254C51.9488 77.8254 51.5498 77.7624 51.1898 77.6364C50.8298 77.5164 50.5268 77.3424 50.2808 77.1144L50.6588 76.6284C50.8508 76.8204 51.0998 76.9734 51.4058 77.0874C51.7178 77.2014 52.0598 77.2584 52.4318 77.2584C53.0318 77.2584 53.4968 77.1204 53.8268 76.8444C54.1568 76.5684 54.3758 76.1424 54.4838 75.5664L54.7358 74.3244L54.9788 73.5504L55.0778 72.7404L55.3568 71.3094H55.9688L55.1408 75.4584C54.9788 76.2924 54.6728 76.8954 54.2228 77.2674C53.7728 77.6394 53.1608 77.8254 52.3868 77.8254ZM52.7018 75.8544C52.2878 75.8544 51.9218 75.7764 51.6038 75.6204C51.2918 75.4644 51.0488 75.2454 50.8748 74.9634C50.7008 74.6754 50.6138 74.3364 50.6138 73.9464C50.6138 73.5624 50.6798 73.2084 50.8118 72.8844C50.9438 72.5604 51.1298 72.2784 51.3698 72.0384C51.6098 71.7924 51.8948 71.6034 52.2248 71.4714C52.5548 71.3334 52.9178 71.2644 53.3138 71.2644C53.6918 71.2644 54.0278 71.3304 54.3218 71.4624C54.6158 71.5944 54.8468 71.7924 55.0148 72.0564C55.1888 72.3204 55.2758 72.6564 55.2758 73.0644C55.2818 73.5804 55.1798 74.0514 54.9698 74.4774C54.7598 74.8974 54.4628 75.2334 54.0788 75.4854C53.6948 75.7314 53.2358 75.8544 52.7018 75.8544ZM52.8278 75.2874C53.2238 75.2874 53.5748 75.1974 53.8808 75.0174C54.1928 74.8374 54.4388 74.5914 54.6188 74.2794C54.7988 73.9614 54.8888 73.6014 54.8888 73.1994C54.8888 72.7674 54.7508 72.4314 54.4748 72.1914C54.1988 71.9454 53.8148 71.8224 53.3228 71.8224C52.9268 71.8224 52.5728 71.9124 52.2608 72.0924C51.9488 72.2724 51.7028 72.5214 51.5228 72.8394C51.3488 73.1514 51.2618 73.5084 51.2618 73.9104C51.2618 74.3424 51.3998 74.6814 51.6758 74.9274C51.9518 75.1674 52.3358 75.2874 52.8278 75.2874ZM65.1514 69.7344H65.8084L64.5484 76.0344H63.8914L65.1514 69.7344ZM59.9494 76.0344H59.2924L60.5524 69.7344H61.2094L59.9494 76.0344ZM64.5394 73.1274H60.4714L60.5794 72.5424H64.6564L64.5394 73.1274ZM66.4787 76.0344L67.4147 71.3094H68.0537L67.1177 76.0344H66.4787ZM68.0087 70.2654C67.8827 70.2654 67.7777 70.2234 67.6937 70.1394C67.6157 70.0554 67.5767 69.9564 67.5767 69.8424C67.5767 69.7104 67.6217 69.5964 67.7117 69.5004C67.8077 69.4044 67.9277 69.3564 68.0717 69.3564C68.1977 69.3564 68.3027 69.3954 68.3867 69.4734C68.4707 69.5514 68.5127 69.6504 68.5127 69.7704C68.5127 69.9144 68.4647 70.0344 68.3687 70.1304C68.2727 70.2204 68.1527 70.2654 68.0087 70.2654ZM70.6417 77.8254C70.2037 77.8254 69.8047 77.7624 69.4447 77.6364C69.0847 77.5164 68.7817 77.3424 68.5357 77.1144L68.9137 76.6284C69.1057 76.8204 69.3547 76.9734 69.6607 77.0874C69.9727 77.2014 70.3147 77.2584 70.6867 77.2584C71.2867 77.2584 71.7517 77.1204 72.0817 76.8444C72.4117 76.5684 72.6307 76.1424 72.7387 75.5664L72.9907 74.3244L73.2337 73.5504L73.3327 72.7404L73.6117 71.3094H74.2237L73.3957 75.4584C73.2337 76.2924 72.9277 76.8954 72.4777 77.2674C72.0277 77.6394 71.4157 77.8254 70.6417 77.8254ZM70.9567 75.8544C70.5427 75.8544 70.1767 75.7764 69.8587 75.6204C69.5467 75.4644 69.3037 75.2454 69.1297 74.9634C68.9557 74.6754 68.8687 74.3364 68.8687 73.9464C68.8687 73.5624 68.9347 73.2084 69.0667 72.8844C69.1987 72.5604 69.3847 72.2784 69.6247 72.0384C69.8647 71.7924 70.1497 71.6034 70.4797 71.4714C70.8097 71.3334 71.1727 71.2644 71.5687 71.2644C71.9467 71.2644 72.2827 71.3304 72.5767 71.4624C72.8707 71.5944 73.1017 71.7924 73.2697 72.0564C73.4437 72.3204 73.5307 72.6564 73.5307 73.0644C73.5367 73.5804 73.4347 74.0514 73.2247 74.4774C73.0147 74.8974 72.7177 75.2334 72.3337 75.4854C71.9497 75.7314 71.4907 75.8544 70.9567 75.8544ZM71.0827 75.2874C71.4787 75.2874 71.8297 75.1974 72.1357 75.0174C72.4477 74.8374 72.6937 74.5914 72.8737 74.2794C73.0537 73.9614 73.1437 73.6014 73.1437 73.1994C73.1437 72.7674 73.0057 72.4314 72.7297 72.1914C72.4537 71.9454 72.0697 71.8224 71.5777 71.8224C71.1817 71.8224 70.8277 71.9124 70.5157 72.0924C70.2037 72.2724 69.9577 72.5214 69.7777 72.8394C69.6037 73.1514 69.5167 73.5084 69.5167 73.9104C69.5167 74.3424 69.6547 74.6814 69.9307 74.9274C70.2067 75.1674 70.5907 75.2874 71.0827 75.2874ZM78.3058 71.2644C78.7318 71.2644 79.0798 71.3484 79.3498 71.5164C79.6258 71.6784 79.8148 71.9154 79.9168 72.2274C80.0248 72.5394 80.0338 72.9114 79.9438 73.3434L79.4038 76.0344H78.7648L79.3048 73.3344C79.4008 72.8664 79.3498 72.5004 79.1518 72.2364C78.9598 71.9724 78.6178 71.8404 78.1258 71.8404C77.6218 71.8404 77.2018 71.9784 76.8658 72.2544C76.5358 72.5304 76.3138 72.9444 76.1998 73.4964L75.6958 76.0344H75.0568L76.3888 69.3564H77.0278L76.3618 72.6684L76.1998 72.4344C76.4278 72.0264 76.7218 71.7294 77.0818 71.5434C77.4478 71.3574 77.8558 71.2644 78.3058 71.2644ZM81.2198 73.8744L81.3278 73.3164H83.6858L83.5778 73.8744H81.2198ZM86.308 76.0344L84.769 69.7344H85.453L86.884 75.6564H86.479L90.304 69.7344H91.006L86.956 76.0344H86.308ZM92.19 76.0794C91.788 76.0794 91.431 75.9984 91.119 75.8364C90.807 75.6744 90.564 75.4434 90.39 75.1434C90.216 74.8434 90.129 74.4864 90.129 74.0724C90.129 73.6704 90.195 73.2984 90.327 72.9564C90.459 72.6144 90.645 72.3174 90.885 72.0654C91.125 71.8074 91.407 71.6094 91.731 71.4714C92.061 71.3334 92.418 71.2644 92.802 71.2644C93.216 71.2644 93.567 71.3394 93.855 71.4894C94.143 71.6334 94.365 71.8464 94.521 72.1284C94.677 72.4044 94.755 72.7404 94.755 73.1364C94.755 73.7064 94.65 74.2134 94.44 74.6574C94.23 75.1014 93.933 75.4494 93.549 75.7014C93.165 75.9534 92.712 76.0794 92.19 76.0794ZM92.325 75.5124C92.721 75.5124 93.072 75.4194 93.378 75.2334C93.69 75.0414 93.933 74.7774 94.107 74.4414C94.287 74.1054 94.377 73.7244 94.377 73.2984C94.377 72.8304 94.239 72.4674 93.963 72.2094C93.693 71.9514 93.312 71.8224 92.82 71.8224C92.43 71.8224 92.079 71.9184 91.767 72.1104C91.455 72.3024 91.209 72.5664 91.029 72.9024C90.855 73.2324 90.768 73.6134 90.768 74.0454C90.768 74.5074 90.903 74.8674 91.173 75.1254C91.449 75.3834 91.833 75.5124 92.325 75.5124ZM93.882 76.0344L94.152 74.6754L94.422 73.7214L94.512 72.7314L94.8 71.3094H95.439L94.494 76.0344H93.882ZM96.2736 76.0344L97.6056 69.3564H98.2446L96.9126 76.0344H96.2736ZM100.671 76.0794C100.257 76.0794 99.9116 75.9954 99.6356 75.8274C99.3656 75.6594 99.1796 75.4194 99.0776 75.1074C98.9756 74.7954 98.9636 74.4264 99.0416 74.0004L99.5816 71.3094H100.221L99.6806 74.0004C99.5906 74.4684 99.6416 74.8374 99.8336 75.1074C100.026 75.3714 100.362 75.5034 100.842 75.5034C101.34 75.5034 101.754 75.3654 102.084 75.0894C102.42 74.8134 102.645 74.3994 102.759 73.8474L103.263 71.3094H103.902L102.957 76.0344H102.345L102.615 74.6754L102.75 74.9004C102.528 75.3084 102.234 75.6084 101.868 75.8004C101.508 75.9864 101.109 76.0794 100.671 76.0794ZM106.897 76.0794C106.447 76.0794 106.054 75.9984 105.718 75.8364C105.388 75.6684 105.133 75.4344 104.953 75.1344C104.779 74.8344 104.692 74.4774 104.692 74.0634C104.692 73.5234 104.806 73.0434 105.034 72.6234C105.262 72.2034 105.574 71.8734 105.97 71.6334C106.366 71.3874 106.813 71.2644 107.311 71.2644C107.731 71.2644 108.094 71.3454 108.4 71.5074C108.706 71.6634 108.943 71.8914 109.111 72.1914C109.285 72.4914 109.372 72.8514 109.372 73.2714C109.372 73.3674 109.366 73.4664 109.354 73.5684C109.342 73.6644 109.327 73.7574 109.309 73.8474H105.16L105.241 73.3704H109.012L108.751 73.5504C108.811 73.1724 108.784 72.8544 108.67 72.5964C108.556 72.3384 108.379 72.1434 108.139 72.0114C107.905 71.8734 107.623 71.8044 107.293 71.8044C106.909 71.8044 106.567 71.9004 106.267 72.0924C105.967 72.2784 105.733 72.5394 105.565 72.8754C105.397 73.2054 105.313 73.5924 105.313 74.0364C105.313 74.5104 105.448 74.8764 105.718 75.1344C105.994 75.3864 106.405 75.5124 106.951 75.5124C107.269 75.5124 107.563 75.4614 107.833 75.3594C108.103 75.2514 108.325 75.1044 108.499 74.9184L108.787 75.3774C108.565 75.5994 108.286 75.7734 107.95 75.8994C107.62 76.0194 107.269 76.0794 106.897 76.0794ZM113.947 72.5514H117.277L117.169 73.1184H113.839L113.947 72.5514ZM113.434 75.4584H117.223L117.106 76.0344H112.66L113.92 69.7344H118.24L118.123 70.3104H114.46L113.434 75.4584ZM117.675 76.0344L120.222 73.4244L120.15 73.7394L118.746 71.3094H119.421L120.591 73.3524L120.303 73.3434L122.265 71.3094H123.003L120.582 73.8024L120.636 73.4424L122.139 76.0344H121.455L120.222 73.8744H120.51L118.431 76.0344H117.675ZM123.221 76.0344L124.157 71.3094H124.796L123.86 76.0344H123.221ZM124.751 70.2654C124.625 70.2654 124.52 70.2234 124.436 70.1394C124.358 70.0554 124.319 69.9564 124.319 69.8424C124.319 69.7104 124.364 69.5964 124.454 69.5004C124.55 69.4044 124.67 69.3564 124.814 69.3564C124.94 69.3564 125.045 69.3954 125.129 69.4734C125.213 69.5514 125.255 69.6504 125.255 69.7704C125.255 69.9144 125.207 70.0344 125.111 70.1304C125.015 70.2204 124.895 70.2654 124.751 70.2654ZM127.141 76.0794C126.871 76.0794 126.64 76.0224 126.448 75.9084C126.256 75.7884 126.121 75.6204 126.043 75.4044C125.971 75.1884 125.965 74.9304 126.025 74.6304L126.889 70.2654H127.528L126.664 74.6034C126.604 74.8974 126.625 75.1254 126.727 75.2874C126.835 75.4494 127.03 75.5304 127.312 75.5304C127.444 75.5304 127.573 75.5124 127.699 75.4764C127.825 75.4344 127.939 75.3714 128.041 75.2874L128.194 75.7734C128.044 75.8874 127.876 75.9684 127.69 76.0164C127.504 76.0584 127.321 76.0794 127.141 76.0794ZM125.737 71.8404L125.836 71.3094H128.761L128.653 71.8404H125.737ZM130.671 76.0794C130.287 76.0794 129.924 76.0254 129.582 75.9174C129.24 75.8094 128.976 75.6714 128.79 75.5034L129.096 74.9994C129.276 75.1614 129.513 75.2904 129.807 75.3864C130.101 75.4764 130.41 75.5214 130.734 75.5214C131.184 75.5214 131.529 75.4464 131.769 75.2964C132.015 75.1464 132.138 74.9394 132.138 74.6754C132.138 74.4954 132.072 74.3604 131.94 74.2704C131.814 74.1744 131.649 74.1024 131.445 74.0544C131.241 74.0004 131.025 73.9494 130.797 73.9014C130.569 73.8534 130.353 73.7934 130.149 73.7214C129.945 73.6434 129.777 73.5264 129.645 73.3704C129.519 73.2144 129.456 73.0044 129.456 72.7404C129.456 72.4404 129.54 72.1794 129.708 71.9574C129.882 71.7354 130.122 71.5644 130.428 71.4444C130.734 71.3244 131.094 71.2644 131.508 71.2644C131.808 71.2644 132.105 71.3034 132.399 71.3814C132.693 71.4594 132.93 71.5674 133.11 71.7054L132.84 72.2184C132.654 72.0744 132.438 71.9724 132.192 71.9124C131.946 71.8464 131.7 71.8134 131.454 71.8134C131.016 71.8134 130.677 71.8944 130.437 72.0564C130.203 72.2124 130.086 72.4194 130.086 72.6774C130.086 72.8574 130.149 72.9954 130.275 73.0914C130.407 73.1874 130.575 73.2624 130.779 73.3164C130.983 73.3704 131.199 73.4214 131.427 73.4694C131.661 73.5114 131.877 73.5714 132.075 73.6494C132.279 73.7274 132.444 73.8414 132.57 73.9914C132.702 74.1354 132.768 74.3394 132.768 74.6034C132.768 74.9154 132.681 75.1824 132.507 75.4044C132.333 75.6204 132.087 75.7884 131.769 75.9084C131.457 76.0224 131.091 76.0794 130.671 76.0794ZM136.152 76.0344L137.214 70.7064C137.304 70.2624 137.484 69.9204 137.754 69.6804C138.03 69.4344 138.39 69.3114 138.834 69.3114C139.026 69.3114 139.206 69.3384 139.374 69.3924C139.542 69.4464 139.68 69.5214 139.788 69.6174L139.5 70.0854C139.332 69.9294 139.11 69.8514 138.834 69.8514C138.558 69.8514 138.336 69.9264 138.168 70.0764C138.006 70.2204 137.892 70.4544 137.826 70.7784L137.682 71.4714L137.646 71.7504L136.791 76.0344H136.152ZM136.143 71.8404L136.242 71.3094H139.167L139.059 71.8404H136.143ZM141.121 76.0794C140.683 76.0794 140.302 75.9984 139.978 75.8364C139.66 75.6684 139.411 75.4344 139.231 75.1344C139.057 74.8344 138.97 74.4804 138.97 74.0724C138.97 73.5324 139.087 73.0524 139.321 72.6324C139.555 72.2064 139.879 71.8734 140.293 71.6334C140.707 71.3874 141.178 71.2644 141.706 71.2644C142.144 71.2644 142.522 71.3454 142.84 71.5074C143.164 71.6694 143.413 71.9004 143.587 72.2004C143.767 72.5004 143.857 72.8544 143.857 73.2624C143.857 73.8024 143.74 74.2854 143.506 74.7114C143.272 75.1314 142.948 75.4644 142.534 75.7104C142.126 75.9564 141.655 76.0794 141.121 76.0794ZM141.166 75.5124C141.562 75.5124 141.913 75.4194 142.219 75.2334C142.531 75.0414 142.774 74.7774 142.948 74.4414C143.128 74.1054 143.218 73.7244 143.218 73.2984C143.218 72.8304 143.08 72.4674 142.804 72.2094C142.534 71.9514 142.153 71.8224 141.661 71.8224C141.271 71.8224 140.92 71.9184 140.608 72.1104C140.296 72.3024 140.05 72.5664 139.87 72.9024C139.696 73.2324 139.609 73.6134 139.609 74.0454C139.609 74.5074 139.744 74.8674 140.014 75.1254C140.29 75.3834 140.674 75.5124 141.166 75.5124ZM144.657 76.0344L145.593 71.3094H146.205L145.935 72.7044L145.863 72.4614C146.073 72.0474 146.349 71.7444 146.691 71.5524C147.039 71.3604 147.471 71.2644 147.987 71.2644L147.87 71.8854C147.84 71.8854 147.81 71.8854 147.78 71.8854C147.756 71.8794 147.726 71.8764 147.69 71.8764C147.186 71.8764 146.769 72.0234 146.439 72.3174C146.115 72.6054 145.893 73.0434 145.773 73.6314L145.296 76.0344H144.657ZM150.76 76.0344L152.02 69.7344H154.711C155.317 69.7344 155.791 69.8484 156.133 70.0764C156.475 70.3044 156.646 70.6374 156.646 71.0754C156.646 71.4834 156.547 71.8254 156.349 72.1014C156.151 72.3714 155.89 72.5754 155.566 72.7134C155.248 72.8514 154.903 72.9204 154.531 72.9204L154.729 72.7134C155.233 72.7134 155.632 72.8304 155.926 73.0644C156.226 73.2924 156.376 73.6314 156.376 74.0814C156.376 74.5014 156.265 74.8584 156.043 75.1524C155.827 75.4464 155.518 75.6684 155.116 75.8184C154.714 75.9624 154.237 76.0344 153.685 76.0344H150.76ZM151.525 75.4854H153.739C154.369 75.4854 154.855 75.3654 155.197 75.1254C155.545 74.8854 155.719 74.5404 155.719 74.0904C155.719 73.7304 155.593 73.4784 155.341 73.3344C155.095 73.1904 154.732 73.1184 154.252 73.1184H151.885L151.993 72.5694H154.117C154.477 72.5694 154.795 72.5184 155.071 72.4164C155.353 72.3144 155.572 72.1614 155.728 71.9574C155.884 71.7474 155.962 71.4924 155.962 71.1924C155.962 70.8804 155.842 70.6524 155.602 70.5084C155.362 70.3584 155.023 70.2834 154.585 70.2834H152.56L151.525 75.4854ZM159.39 76.0794C158.976 76.0794 158.631 75.9954 158.355 75.8274C158.085 75.6594 157.899 75.4194 157.797 75.1074C157.695 74.7954 157.683 74.4264 157.761 74.0004L158.301 71.3094H158.94L158.4 74.0004C158.31 74.4684 158.361 74.8374 158.553 75.1074C158.745 75.3714 159.081 75.5034 159.561 75.5034C160.059 75.5034 160.473 75.3654 160.803 75.0894C161.139 74.8134 161.364 74.3994 161.478 73.8474L161.982 71.3094H162.621L161.676 76.0344H161.064L161.334 74.6754L161.469 74.9004C161.247 75.3084 160.953 75.6084 160.587 75.8004C160.227 75.9864 159.828 76.0794 159.39 76.0794ZM164.834 76.0794C164.45 76.0794 164.087 76.0254 163.745 75.9174C163.403 75.8094 163.139 75.6714 162.953 75.5034L163.259 74.9994C163.439 75.1614 163.676 75.2904 163.97 75.3864C164.264 75.4764 164.573 75.5214 164.897 75.5214C165.347 75.5214 165.692 75.4464 165.932 75.2964C166.178 75.1464 166.301 74.9394 166.301 74.6754C166.301 74.4954 166.235 74.3604 166.103 74.2704C165.977 74.1744 165.812 74.1024 165.608 74.0544C165.404 74.0004 165.188 73.9494 164.96 73.9014C164.732 73.8534 164.516 73.7934 164.312 73.7214C164.108 73.6434 163.94 73.5264 163.808 73.3704C163.682 73.2144 163.619 73.0044 163.619 72.7404C163.619 72.4404 163.703 72.1794 163.871 71.9574C164.045 71.7354 164.285 71.5644 164.591 71.4444C164.897 71.3244 165.257 71.2644 165.671 71.2644C165.971 71.2644 166.268 71.3034 166.562 71.3814C166.856 71.4594 167.093 71.5674 167.273 71.7054L167.003 72.2184C166.817 72.0744 166.601 71.9724 166.355 71.9124C166.109 71.8464 165.863 71.8134 165.617 71.8134C165.179 71.8134 164.84 71.8944 164.6 72.0564C164.366 72.2124 164.249 72.4194 164.249 72.6774C164.249 72.8574 164.312 72.9954 164.438 73.0914C164.57 73.1874 164.738 73.2624 164.942 73.3164C165.146 73.3704 165.362 73.4214 165.59 73.4694C165.824 73.5114 166.04 73.5714 166.238 73.6494C166.442 73.7274 166.607 73.8414 166.733 73.9914C166.865 74.1354 166.931 74.3394 166.931 74.6034C166.931 74.9154 166.844 75.1824 166.67 75.4044C166.496 75.6204 166.25 75.7884 165.932 75.9084C165.62 76.0224 165.254 76.0794 164.834 76.0794ZM167.852 76.0344L168.788 71.3094H169.427L168.491 76.0344H167.852ZM169.382 70.2654C169.256 70.2654 169.151 70.2234 169.067 70.1394C168.989 70.0554 168.95 69.9564 168.95 69.8424C168.95 69.7104 168.995 69.5964 169.085 69.5004C169.181 69.4044 169.301 69.3564 169.445 69.3564C169.571 69.3564 169.676 69.3954 169.76 69.4734C169.844 69.5514 169.886 69.6504 169.886 69.7704C169.886 69.9144 169.838 70.0344 169.742 70.1304C169.646 70.2204 169.526 70.2654 169.382 70.2654ZM173.518 71.2644C173.944 71.2644 174.292 71.3484 174.562 71.5164C174.838 71.6784 175.027 71.9154 175.129 72.2274C175.237 72.5394 175.246 72.9114 175.156 73.3434L174.616 76.0344H173.977L174.517 73.3344C174.613 72.8664 174.562 72.5004 174.364 72.2364C174.172 71.9724 173.83 71.8404 173.338 71.8404C172.834 71.8404 172.414 71.9784 172.078 72.2544C171.748 72.5304 171.526 72.9444 171.412 73.4964L170.908 76.0344H170.269L171.205 71.3094H171.817L171.547 72.6684L171.412 72.4344C171.64 72.0264 171.934 71.7294 172.294 71.5434C172.66 71.3574 173.068 71.2644 173.518 71.2644ZM178.511 76.0794C178.061 76.0794 177.668 75.9984 177.332 75.8364C177.002 75.6684 176.747 75.4344 176.567 75.1344C176.393 74.8344 176.306 74.4774 176.306 74.0634C176.306 73.5234 176.42 73.0434 176.648 72.6234C176.876 72.2034 177.188 71.8734 177.584 71.6334C177.98 71.3874 178.427 71.2644 178.925 71.2644C179.345 71.2644 179.708 71.3454 180.014 71.5074C180.32 71.6634 180.557 71.8914 180.725 72.1914C180.899 72.4914 180.986 72.8514 180.986 73.2714C180.986 73.3674 180.98 73.4664 180.968 73.5684C180.956 73.6644 180.941 73.7574 180.923 73.8474H176.774L176.855 73.3704H180.626L180.365 73.5504C180.425 73.1724 180.398 72.8544 180.284 72.5964C180.17 72.3384 179.993 72.1434 179.753 72.0114C179.519 71.8734 179.237 71.8044 178.907 71.8044C178.523 71.8044 178.181 71.9004 177.881 72.0924C177.581 72.2784 177.347 72.5394 177.179 72.8754C177.011 73.2054 176.927 73.5924 176.927 74.0364C176.927 74.5104 177.062 74.8764 177.332 75.1344C177.608 75.3864 178.019 75.5124 178.565 75.5124C178.883 75.5124 179.177 75.4614 179.447 75.3594C179.717 75.2514 179.939 75.1044 180.113 74.9184L180.401 75.3774C180.179 75.5994 179.9 75.7734 179.564 75.8994C179.234 76.0194 178.883 76.0794 178.511 76.0794ZM183.159 76.0794C182.775 76.0794 182.412 76.0254 182.07 75.9174C181.728 75.8094 181.464 75.6714 181.278 75.5034L181.584 74.9994C181.764 75.1614 182.001 75.2904 182.295 75.3864C182.589 75.4764 182.898 75.5214 183.222 75.5214C183.672 75.5214 184.017 75.4464 184.257 75.2964C184.503 75.1464 184.626 74.9394 184.626 74.6754C184.626 74.4954 184.56 74.3604 184.428 74.2704C184.302 74.1744 184.137 74.1024 183.933 74.0544C183.729 74.0004 183.513 73.9494 183.285 73.9014C183.057 73.8534 182.841 73.7934 182.637 73.7214C182.433 73.6434 182.265 73.5264 182.133 73.3704C182.007 73.2144 181.944 73.0044 181.944 72.7404C181.944 72.4404 182.028 72.1794 182.196 71.9574C182.37 71.7354 182.61 71.5644 182.916 71.4444C183.222 71.3244 183.582 71.2644 183.996 71.2644C184.296 71.2644 184.593 71.3034 184.887 71.3814C185.181 71.4594 185.418 71.5674 185.598 71.7054L185.328 72.2184C185.142 72.0744 184.926 71.9724 184.68 71.9124C184.434 71.8464 184.188 71.8134 183.942 71.8134C183.504 71.8134 183.165 71.8944 182.925 72.0564C182.691 72.2124 182.574 72.4194 182.574 72.6774C182.574 72.8574 182.637 72.9954 182.763 73.0914C182.895 73.1874 183.063 73.2624 183.267 73.3164C183.471 73.3704 183.687 73.4214 183.915 73.4694C184.149 73.5114 184.365 73.5714 184.563 73.6494C184.767 73.7274 184.932 73.8414 185.058 73.9914C185.19 74.1354 185.256 74.3394 185.256 74.6034C185.256 74.9154 185.169 75.1824 184.995 75.4044C184.821 75.6204 184.575 75.7884 184.257 75.9084C183.945 76.0224 183.579 76.0794 183.159 76.0794ZM187.554 76.0794C187.17 76.0794 186.807 76.0254 186.465 75.9174C186.123 75.8094 185.859 75.6714 185.673 75.5034L185.979 74.9994C186.159 75.1614 186.396 75.2904 186.69 75.3864C186.984 75.4764 187.293 75.5214 187.617 75.5214C188.067 75.5214 188.412 75.4464 188.652 75.2964C188.898 75.1464 189.021 74.9394 189.021 74.6754C189.021 74.4954 188.955 74.3604 188.823 74.2704C188.697 74.1744 188.532 74.1024 188.328 74.0544C188.124 74.0004 187.908 73.9494 187.68 73.9014C187.452 73.8534 187.236 73.7934 187.032 73.7214C186.828 73.6434 186.66 73.5264 186.528 73.3704C186.402 73.2144 186.339 73.0044 186.339 72.7404C186.339 72.4404 186.423 72.1794 186.591 71.9574C186.765 71.7354 187.005 71.5644 187.311 71.4444C187.617 71.3244 187.977 71.2644 188.391 71.2644C188.691 71.2644 188.988 71.3034 189.282 71.3814C189.576 71.4594 189.813 71.5674 189.993 71.7054L189.723 72.2184C189.537 72.0744 189.321 71.9724 189.075 71.9124C188.829 71.8464 188.583 71.8134 188.337 71.8134C187.899 71.8134 187.56 71.8944 187.32 72.0564C187.086 72.2124 186.969 72.4194 186.969 72.6774C186.969 72.8574 187.032 72.9954 187.158 73.0914C187.29 73.1874 187.458 73.2624 187.662 73.3164C187.866 73.3704 188.082 73.4214 188.31 73.4694C188.544 73.5114 188.76 73.5714 188.958 73.6494C189.162 73.7274 189.327 73.8414 189.453 73.9914C189.585 74.1354 189.651 74.3394 189.651 74.6034C189.651 74.9154 189.564 75.1824 189.39 75.4044C189.216 75.6204 188.97 75.7884 188.652 75.9084C188.34 76.0224 187.974 76.0794 187.554 76.0794ZM195.996 76.0884C195.378 76.0884 194.85 75.9804 194.412 75.7644C193.974 75.5424 193.641 75.2364 193.413 74.8464C193.191 74.4504 193.08 73.9914 193.08 73.4694C193.08 72.9534 193.167 72.4674 193.341 72.0114C193.515 71.5554 193.767 71.1534 194.097 70.8054C194.433 70.4514 194.835 70.1754 195.303 69.9774C195.771 69.7794 196.296 69.6804 196.878 69.6804C197.502 69.6804 198.03 69.7914 198.462 70.0134C198.9 70.2294 199.23 70.5354 199.452 70.9314C199.68 71.3214 199.794 71.7774 199.794 72.2994C199.794 72.8154 199.707 73.3014 199.533 73.7574C199.359 74.2134 199.104 74.6184 198.768 74.9724C198.438 75.3204 198.039 75.5934 197.571 75.7914C197.103 75.9894 196.578 76.0884 195.996 76.0884ZM196.059 75.4944C196.527 75.4944 196.95 75.4134 197.328 75.2514C197.706 75.0834 198.03 74.8524 198.3 74.5584C198.57 74.2644 198.777 73.9284 198.921 73.5504C199.065 73.1664 199.137 72.7584 199.137 72.3264C199.137 71.9184 199.047 71.5614 198.867 71.2554C198.693 70.9494 198.435 70.7094 198.093 70.5354C197.751 70.3614 197.325 70.2744 196.815 70.2744C196.347 70.2744 195.924 70.3584 195.546 70.5264C195.168 70.6884 194.844 70.9164 194.574 71.2104C194.31 71.5044 194.103 71.8434 193.953 72.2274C193.809 72.6054 193.737 73.0104 193.737 73.4424C193.737 73.8444 193.824 74.2014 193.998 74.5134C194.178 74.8194 194.439 75.0594 194.781 75.2334C195.123 75.4074 195.549 75.4944 196.059 75.4944ZM201.494 76.0344L200.567 71.3094H201.152L201.989 75.6924H201.701L204.203 71.3094H204.743L205.607 75.6924H205.319L207.785 71.3094H208.406L205.733 76.0344H205.112L204.266 71.9124H204.464L202.106 76.0344H201.494ZM211.636 71.2644C212.062 71.2644 212.41 71.3484 212.68 71.5164C212.956 71.6784 213.145 71.9154 213.247 72.2274C213.355 72.5394 213.364 72.9114 213.274 73.3434L212.734 76.0344H212.095L212.635 73.3344C212.731 72.8664 212.68 72.5004 212.482 72.2364C212.29 71.9724 211.948 71.8404 211.456 71.8404C210.952 71.8404 210.532 71.9784 210.196 72.2544C209.866 72.5304 209.644 72.9444 209.53 73.4964L209.026 76.0344H208.387L209.323 71.3094H209.935L209.665 72.6684L209.53 72.4344C209.758 72.0264 210.052 71.7294 210.412 71.5434C210.778 71.3574 211.186 71.2644 211.636 71.2644ZM216.629 76.0794C216.179 76.0794 215.786 75.9984 215.45 75.8364C215.12 75.6684 214.865 75.4344 214.685 75.1344C214.511 74.8344 214.424 74.4774 214.424 74.0634C214.424 73.5234 214.538 73.0434 214.766 72.6234C214.994 72.2034 215.306 71.8734 215.702 71.6334C216.098 71.3874 216.545 71.2644 217.043 71.2644C217.463 71.2644 217.826 71.3454 218.132 71.5074C218.438 71.6634 218.675 71.8914 218.843 72.1914C219.017 72.4914 219.104 72.8514 219.104 73.2714C219.104 73.3674 219.098 73.4664 219.086 73.5684C219.074 73.6644 219.059 73.7574 219.041 73.8474H214.892L214.973 73.3704H218.744L218.483 73.5504C218.543 73.1724 218.516 72.8544 218.402 72.5964C218.288 72.3384 218.111 72.1434 217.871 72.0114C217.637 71.8734 217.355 71.8044 217.025 71.8044C216.641 71.8044 216.299 71.9004 215.999 72.0924C215.699 72.2784 215.465 72.5394 215.297 72.8754C215.129 73.2054 215.045 73.5924 215.045 74.0364C215.045 74.5104 215.18 74.8764 215.45 75.1344C215.726 75.3864 216.137 75.5124 216.683 75.5124C217.001 75.5124 217.295 75.4614 217.565 75.3594C217.835 75.2514 218.057 75.1044 218.231 74.9184L218.519 75.3774C218.297 75.5994 218.018 75.7734 217.682 75.8994C217.352 76.0194 217.001 76.0794 216.629 76.0794ZM219.901 76.0344L220.837 71.3094H221.449L221.179 72.7044L221.107 72.4614C221.317 72.0474 221.593 71.7444 221.935 71.5524C222.283 71.3604 222.715 71.2644 223.231 71.2644L223.114 71.8854C223.084 71.8854 223.054 71.8854 223.024 71.8854C223 71.8794 222.97 71.8764 222.934 71.8764C222.43 71.8764 222.013 72.0234 221.683 72.3174C221.359 72.6054 221.137 73.0434 221.017 73.6314L220.54 76.0344H219.901ZM224.872 76.0794C224.488 76.0794 224.125 76.0254 223.783 75.9174C223.441 75.8094 223.177 75.6714 222.991 75.5034L223.297 74.9994C223.477 75.1614 223.714 75.2904 224.008 75.3864C224.302 75.4764 224.611 75.5214 224.935 75.5214C225.385 75.5214 225.73 75.4464 225.97 75.2964C226.216 75.1464 226.339 74.9394 226.339 74.6754C226.339 74.4954 226.273 74.3604 226.141 74.2704C226.015 74.1744 225.85 74.1024 225.646 74.0544C225.442 74.0004 225.226 73.9494 224.998 73.9014C224.77 73.8534 224.554 73.7934 224.35 73.7214C224.146 73.6434 223.978 73.5264 223.846 73.3704C223.72 73.2144 223.657 73.0044 223.657 72.7404C223.657 72.4404 223.741 72.1794 223.909 71.9574C224.083 71.7354 224.323 71.5644 224.629 71.4444C224.935 71.3244 225.295 71.2644 225.709 71.2644C226.009 71.2644 226.306 71.3034 226.6 71.3814C226.894 71.4594 227.131 71.5674 227.311 71.7054L227.041 72.2184C226.855 72.0744 226.639 71.9724 226.393 71.9124C226.147 71.8464 225.901 71.8134 225.655 71.8134C225.217 71.8134 224.878 71.8944 224.638 72.0564C224.404 72.2124 224.287 72.4194 224.287 72.6774C224.287 72.8574 224.35 72.9954 224.476 73.0914C224.608 73.1874 224.776 73.2624 224.98 73.3164C225.184 73.3704 225.4 73.4214 225.628 73.4694C225.862 73.5114 226.078 73.5714 226.276 73.6494C226.48 73.7274 226.645 73.8414 226.771 73.9914C226.903 74.1354 226.969 74.3394 226.969 74.6034C226.969 74.9154 226.882 75.1824 226.708 75.4044C226.534 75.6204 226.288 75.7884 225.97 75.9084C225.658 76.0224 225.292 76.0794 224.872 76.0794Z" fill="#FDFAF8"/>
</g>
<defs>
<clipPath id="clip0_873_294">
<rect width="300" height="79.5172" fill="white" transform="translate(0 0.0344238)"/>
</clipPath>
</defs>
</svg>
